<svg xmlns="http://www.w3.org/2000/svg" width="145.333" height="43.342"><path d="M66.503 1.373C64.818.32 62.587.843 61.535 2.527L54.62 13.582 48.096 2.536C47.262 1.123 45.6.503 44.082.898c-.955.182-1.836.743-2.39 1.63L34.78 13.58 28.253 2.536C27.487 1.238 26.02.61 24.613.82c-.53.046-1.056.202-1.54.487-.454.267-.844.63-1.13 1.035-.082.105-.172.22-.244.336l-9.95 15.87c-1.06 1.684-.55 3.903 1.13 4.958 1.68 1.054 3.91.536 4.97-1.147l6.93-11.05 6.51 11.05c.78 1.33 2.31 1.96 3.76 1.69.5-.06.99-.21 1.44-.48.45-.27.84-.64 1.13-1.04.08-.11.17-.22.24-.34l6.91-11.05 6.6 11.18c1.01 1.71 3.25 2.25 4.96 1.24.45-.27.84-.63 1.13-1.04.08-.1.17-.22.24-.336l9.93-15.88c1.05-1.69.54-3.908-1.14-4.96M0 3.98C0 2 1.608.392 3.594.392 5.58.396 7.188 2 7.188 3.99v16.38c0 1.985-1.608 3.593-3.594 3.593C1.608 23.963 0 22.355 0 20.37V3.985zm122.802-2.71c-1.683-1.054-3.916-.535-4.97 1.148l-6.93 11.045-6.508-11.056c-1.007-1.712-3.23-2.268-4.943-1.26-1.71 1.006-2.3 3.22-1.29 4.933l9.5 16.138c1.01 1.71 3.25 2.26 4.96 1.25.46-.266.85-.63 1.13-1.033.08-.105.17-.22.25-.336l9.95-15.88c1.06-1.69.55-3.91-1.13-4.96M70.6 12.39v-.09c-.004-6.63 5.33-12 12.513-12 7.14 0 12.43 5.29 12.43 11.912v.086c0 6.624-5.334 12-12.52 12-7.14 0-12.43-5.29-12.43-11.915m18.498 0V12.3c0-3.4-2.45-6.368-6.06-6.368-3.74 0-5.98 2.88-5.98 6.28v.086c0 3.397 2.45 6.365 6.06 6.365 3.75 0 5.98-2.88 5.98-6.28M145.07 6c-.5-1.943-1.663-3.505-3.452-4.642C140.2.46 138.78 0 137.403 0c-.51 0-1.03.064-1.5.182-1.91.378-3.45 1.472-4.58 3.25-1.22 1.917-1.43 4.173-.64 6.716-2.625.24-4.6 1.376-5.88 3.384-1.13 1.788-1.46 3.668-.96 5.588.497 1.916 1.664 3.47 3.47 4.616 1.45.922 2.912 1.39 4.35 1.39.47 0 .947-.05 1.415-.15 1.894-.4 3.433-1.514 4.577-3.313.658-1.034.986-2.227.975-3.523.024-.975-.12-1.992-.44-3.088 2.72-.3 4.744-1.476 6.03-3.5 1.1-1.732 1.39-3.6.863-5.544m-5.405 1.305c.156.5.085.86-.227 1.35-.48.76-1.56 1.04-3.2 1.04h-.07c-.68-.654-.79-2.515-.32-3.26.3-.475.7-.71 1.25-.854.11-.02.21 0 .32 0 .42 0 .82.14 1.24.4.53.34.86.76 1.03 1.32m-10.4 10.44c-.14-.5-.06-.97.25-1.46.3-.47.68-.76 1.21-.93.5-.157 1.09-.233 1.8-.233h.22c.717 1.48.837 2.607.358 3.36-.314.495-.705.79-1.23.93-.11.02-.22.03-.324.03-.39 0-.79-.133-1.22-.404-.56-.355-.9-.783-1.05-1.307" fill="#FFF"/><path d="M5.903 43.212v-5.494H4.007v-.603H8.46v.603h-1.9v5.494m8.818 0v-2.865h-3.205v2.865h-.666v-6.097h.666v2.628h3.205v-2.628h.666v6.097m7.316 0h-3.598v-6.097h3.6v.603h-2.934v2.074H23.2v.604h-2.772v2.21h2.933m7.93-2.006c0 1.45.67 2.133 1.72 2.133 1 0 1.53-.612 1.53-1.31h.66c0 .845-.68 1.918-2.21 1.918-1.45 0-2.35-.95-2.35-2.73v-.85c0-1.78.92-2.77 2.36-2.77 1.48 0 2.21 1.07 2.21 2.02h-.66c0-.67-.54-1.41-1.55-1.41-1.02 0-1.69.74-1.69 2.17v.85zm7.1-.88c0-1.716.95-2.74 2.41-2.74 1.46 0 2.4 1.025 2.4 2.74v.94c0 1.713-.95 2.682-2.41 2.682-1.46 0-2.39-.97-2.39-2.682v-.94zm.66.944c0 1.395.74 2.07 1.74 2.07 1.01 0 1.75-.675 1.75-2.07v-.947c0-1.395-.75-2.128-1.74-2.128s-1.73.73-1.73 2.12v.94zm8.61 2.548l-1.67-6.097h.78l1.21 4.926H48l1.27-4.92h.714l1.27 4.93h.02l1.208-4.92h.783l-1.685 6.1h-.607l-1.34-4.96h-.024l-1.35 4.96m7.79-3.49c0-1.71.95-2.74 2.4-2.74 1.46 0 2.4 1.03 2.4 2.74v.94c0 1.72-.96 2.69-2.42 2.69-1.47 0-2.4-.97-2.4-2.68v-.94zm.66.95c0 1.4.74 2.07 1.73 2.07 1 0 1.74-.67 1.74-2.07v-.95c0-1.39-.75-2.12-1.75-2.12-.99 0-1.73.73-1.73 2.13v.95zm11.68-1.76c0 .99-.59 1.5-1.16 1.69l1.26 2.62h-.77l-1.16-2.48h-1.58v2.48h-.67v-6.1h2.15c1.32 0 1.91.84 1.91 1.79m-2.04 1.22c.89 0 1.35-.43 1.35-1.18 0-.8-.51-1.23-1.32-1.23h-1.39v2.42h1.365zm7.483-.41l2.44 3.5h-.86l-2.08-3.04-.77.83v2.2h-.66v-6.1h.67v3.02h.026l2.754-3.02h.81m3.166 0h.67v6.1h-.66zm4.397 6.1v-6.1h.66l3.19 4.95h.02v-4.96h.664v6.1h-.67l-3.19-4.952h-.01v4.95m11.3-4.29c-.11-.89-.77-1.33-1.57-1.33-.94 0-1.723.638-1.723 2.118v.88c0 1.34.59 2.16 1.71 2.16.932 0 1.61-.57 1.61-1.4v-.65h-1.66v-.61h2.3v1.26c0 .82-.58 2.01-2.25 2.01-1.58 0-2.38-1.07-2.38-2.76v-.88c0-1.72.96-2.722 2.405-2.722 1.39 0 2.14.92 2.207 1.94h-.66zm8.4 2.674c.056.603.566 1.14 1.57 1.14.88 0 1.46-.44 1.46-1.14 0-.55-.34-.85-1.06-1.04l-1.04-.28c-.723-.2-1.403-.65-1.403-1.58 0-1.12.99-1.73 2.063-1.73 1.02 0 2.04.54 2.06 1.7h-.67c-.057-.6-.51-1.09-1.416-1.09-.8 0-1.38.38-1.38 1.07 0 .48.29.81.91.97l1.034.29c.956.26 1.586.68 1.586 1.64 0 1.18-.996 1.79-2.234 1.79-1.586 0-2.13-.98-2.16-1.75h.673zm9.26-4.48c1.15 0 1.92.74 1.92 1.864 0 1.13-.774 1.86-1.922 1.86h-1.49v2.37h-.666v-6.1h2.157zm-1.49 3.13h1.02c1.078 0 1.7-.24 1.7-1.266 0-.8-.46-1.26-1.26-1.26h-1.463v2.53zm5.53 2.967l2.19-6.097h.65l2.19 6.098h-.714l-.647-1.9h-2.34l-.65 1.9h-.684zm2.49-5.274l-.97 2.83h1.96l-.97-2.83h-.015zm5.95 2.67c0 1.45.665 2.13 1.72 2.13.997 0 1.53-.61 1.53-1.31h.66c0 .85-.68 1.92-2.22 1.92-1.454 0-2.35-.95-2.35-2.73v-.85c0-1.77.918-2.77 2.358-2.77 1.48 0 2.21 1.07 2.21 2.02h-.66c0-.67-.537-1.41-1.548-1.41-1.02 0-1.696.73-1.696 2.17v.85zm10.936 2.61h-3.6v-6.1h3.6v.61h-2.933v2.07h2.78v.61h-2.775v2.21h2.933" fill="#EC6833"/></svg>
